<mxfile host="app.diagrams.net" modified="2022-01-24T03:30:33.014Z" agent="5.0 (Windows)" etag="s2bdgGwtMWlFhzGXOb5J" version="16.4.5" type="github">
  <diagram id="8wOz5EwU33NyLmdHWQlg" name="Page-1">
    <mxGraphModel dx="1038" dy="536" grid="1" gridSize="10" guides="1" tooltips="1" connect="1" arrows="1" fold="1" page="1" pageScale="1" pageWidth="827" pageHeight="1169" math="0" shadow="0">
      <root>
        <mxCell id="0" />
        <mxCell id="1" parent="0" />
      </root>
    </mxGraphModel>
  </diagram>
</mxfile>
